<svg width="899" height="340" viewBox="0 0 899 340" fill="none" xmlns="http://www.w3.org/2000/svg"><path d="M24 265.849c54.974-66.56 108.85-135.197 164.947-185.1828C209.053 62.7502 204.941 77.7032 208.208 147 210.143 188.043 211.087 292.702 222.567 312.836 231.265 328.091 253.525 283.662 260.039 275.523c36.218-45.259 73.117-80.207 109.614-121.613C378.943 143.371 440.794 31.1113 451.251 72.3745 455.905 90.7386 452.806 151.375 455.804 177.404 466.668 271.719 585.292 50.8266 606.042 28.1517 639.127-8.00264 615.844 202.264 630.556 260.321c8.149 32.157 101.212-190.7105 120.121-190.7105C776.62 69.6105 744.383 313.507 787.449 228.536 815.276 173.631 847.322 146.333 875 91.7219" stroke="#0c081e" stroke-width="47" stroke-linecap="round"/></svg>