<svg width="50" height="50" viewBox="0 0 50 50" fill="none" xmlns="http://www.w3.org/2000/svg"><path d="M3.125 18.9583c0-5.5422.0-8.3132 1.07858-10.43008C5.15233 6.6662 6.6662 5.15233 8.52822 4.20358 10.6451 3.125 13.4161 3.125 18.9583 3.125H31.0417c5.5422.0 8.3132.0 10.4301 1.07858C43.3338 5.15233 44.8477 6.6662 45.7964 8.52822 46.875 10.6451 46.875 13.4161 46.875 18.9583V31.0417c0 5.5422.0 8.3132-1.0786 10.4301C44.8477 43.3338 43.3338 44.8477 41.4718 45.7964c-2.1169 1.0786-4.8879 1.0786-10.4301 1.0786H18.9583c-5.5422.0-8.3132.0-10.43008-1.0786C6.6662 44.8477 5.15233 43.3338 4.20358 41.4718 3.125 39.3549 3.125 36.5839 3.125 31.0417V18.9583z" fill="#470137"/><path d="M26.0101 15.9903l-5.4589 9.2412 5.8404 9.8131C26.513 35.2671 26.3916 35.3162 26.2156 35.3162H22.048C21.7545 35.3162 21.5491 35.3056 21.4317 35.1048 21.04 34.3222 20.6487 33.5446 20.2577 32.7719 19.8661 31.9996 19.4503 31.2119 19.0104 30.4089 18.5702 29.6066 18.1348 28.7938 17.7044 27.9707 17.3127 28.7736 16.8774 29.5763 16.457 30.3789 16.0361 31.1817 15.6203 31.9794 15.2097 32.7719 14.7988 33.5649 14.3782 34.3526 13.9477 35.1349 13.8693 35.3155 13.7321 35.3341 13.5368 35.3341H9.51603C9.35805 35.3341 9.33899 35.2154 9.428 35.0747l5.6643-9.5422-5.51761-9.5723C9.47446 15.8236 9.56072 15.6781 9.72146 15.6893H13.8596C14.0388 15.6792 14.1972 15.7468 14.2999 15.9 14.6521 16.7029 15.0434 17.5056 15.4738 18.3081 15.904 19.111 16.3393 19.9037 16.7798 20.6862 17.2201 21.4688 17.6555 22.2615 18.0272 23.0642 18.4183 22.2415 18.8145 21.4388 19.2158 20.6561 19.6167 19.8734 20.0275 19.0858 20.4485 18.2931 20.869 17.5006 21.275 16.7129 21.6665 15.9301 21.7185 15.7584 21.8428 15.6714 22.0187 15.6893h3.8446C26.0101 15.6893 26.0708 15.8897 26.0101 15.9903z" fill="#ff61f6"/><path d="M34.433 35.707C31.8447 35.7474 29.1336 34.6818 27.7708 32.3206 27.1054 31.1871 26.7728 29.7673 26.7729 28.0613 26.7619 26.6797 27.1061 25.3196 27.7708 24.118c1.7152-3.0659 5.1704-4.2146 8.4525-3.9132v-5.93C36.2233 14.1346 36.282 14.0641 36.3994 14.0641h3.6979C40.1984 14.0493 40.2879 14.141 40.2735 14.2447V32.0346C40.2735 32.7687 40.3462 33.5001 40.3909 34.232 40.3981 34.3571 40.3257 34.4808 40.2147 34.5331 38.3876 35.3147 36.4106 35.698 34.433 35.707zm1.7903-3.7326V23.7568C33.5427 23.012 30.9401 25.0538 30.9405 27.8806 30.8768 30.8033 33.3962 32.8225 36.2233 31.9744z" fill="#ff61f6"/></svg>