<svg width="50" height="50" viewBox="0 0 50 50" fill="none" xmlns="http://www.w3.org/2000/svg"><path d="M3.125 18.9583c0-5.5422.0-8.3132 1.07858-10.43008C5.15233 6.6662 6.6662 5.15233 8.52822 4.20358 10.6451 3.125 13.4161 3.125 18.9583 3.125H31.0417c5.5422.0 8.3132.0 10.4301 1.07858C43.3338 5.15233 44.8477 6.6662 45.7964 8.52822 46.875 10.6451 46.875 13.4161 46.875 18.9583V31.0417c0 5.5422.0 8.3132-1.0786 10.4301C44.8477 43.3338 43.3338 44.8477 41.4718 45.7964c-2.1169 1.0786-4.8879 1.0786-10.4301 1.0786H18.9583c-5.5422.0-8.3132.0-10.43008-1.0786C6.6662 44.8477 5.15233 43.3338 4.20358 41.4718 3.125 39.3549 3.125 36.5839 3.125 31.0417V18.9583z" fill="#001e36"/><path d="M12.5 35.1816V15.9428C12.5 15.812 12.5547 15.7372 12.6823 15.7372c1.8838.0 3.7667-.1122 5.651-.1122 3.0576.0 6.3682 1.0455 7.5287 4.2441C26.1354 20.6544 26.2813 21.4583 26.2813 22.2997 26.2813 23.9076 25.9167 25.235 25.1875 26.2821c-2.0369 2.9247-5.5672 2.8792-8.7318 2.8792v6.0016C16.4805 35.3406 16.3291 35.4247 16.1823 35.4247H12.7188C12.5729 35.4247 12.5 35.3499 12.5 35.1816zm3.974-15.836v6.2821C17.7287 25.7196 19.0418 25.7296 20.2474 25.3285 21.5784 24.9446 22.3073 23.7924 22.3073 22.4119 22.3443 21.2355 21.7033 20.1067 20.612 19.6822 19.4209 19.1869 17.7597 19.1572 16.474 19.3456z" fill="#31a8ff"/><path d="M37.651 24.3865C37.0995 24.0958 36.512 23.8832 35.9048 23.7544 35.1244 23.5707 32.0465 22.9277 32.0454 24.537 32.0727 25.4355 33.4989 25.8757 34.1291 26.1324 36.3414 26.8919 38.8448 28.2496 38.7956 30.9787 38.8633 34.3763 35.5714 35.7345 32.7497 35.7348 31.2807 35.75 29.7504 35.5225 28.4061 34.8919 28.2777 34.824 28.1951 34.6787 28.2006 34.5307v-3.251C28.1862 31.1494 28.326 31.0355 28.4354 31.1292 29.7526 31.9259 31.314 32.3126 32.8378 32.3333 33.5104 32.3333 34.8436 32.2681 34.8335 31.2797c0-.9484-1.5948-1.3845-2.2305-1.6255C31.6814 29.3253 30.8077 28.8696 30.0056 28.2997 28.8847 27.5002 28.1815 26.2182 28.2006 24.8079 28.1941 21.6089 31.2242 20.173 33.9531 20.1723 35.2288 20.1618 36.5987 20.2563 37.7862 20.7743 37.957 20.8246 37.9924 21.0045 37.9917 21.1656v3.0403C38.0025 24.3946 37.7929 24.4589 37.651 24.3865z" fill="#31a8ff"/></svg>