<svg width="50" height="50" viewBox="0 0 50 50" fill="none" xmlns="http://www.w3.org/2000/svg"><circle cx="25" cy="25" r="21.875" fill="#f36"/><path d="M17.749 16.9678c1.5102.0 2.7344-1.2242 2.7344-2.7344.0-1.5102-1.2242-2.7344-2.7344-2.7344-1.5101.0-2.7344 1.2242-2.7344 2.7344.0 1.5102 1.2243 2.7344 2.7344 2.7344z" fill="#fff"/><path d="M12.0361 19.3115l-.9521 3.4912h3.125c-.6266 2.5472-1.9385 7.9053-2.1729 8.96C11.7432 33.0811 11.6943 36.8408 15.6494 36.8408c2.7606.0 4.5214-1.7833 5.5035-3.2395L20.4102 36.5723h4.4433l2.3194-9.3878C27.5024 25.6226 28.2782 22.6074 31.0791 22.6074c3.3311.0 2.1091 3.9446 1.5102 5.8777C32.5649 28.5639 32.5415 28.6393 32.5195 28.7109 32.0703 30.1758 31.5918 31.8848 31.5918 33.0566c0 1.3184.610300000000002 3.7842 4.0283 3.7842s4.8747-3.3854 5.1758-5.0781L39.0625 31.0547C38.9404 31.958 37.8418 33.9111 36.8164 33.9111 35.4127 33.9111 36.1178 31.5445 36.8703 29.0188 37.2041 27.8986 37.5472 26.747 37.7197 25.7568 38.156 23.2533 37.7197 18.9941 33.374 18.9941c-2.699.0-4.8184 2.4051-5.8267 4.0748L28.3936 19.3115H21.6309L20.7031 22.8027h3.1494s-1.8689 7.6165-1.9897 7.8553c-1.2695 2.5085-3.1897 3.3505-4.6265 3.2531C16.084 33.833 16.2191 32.4463 16.4307 31.7627l3.125-12.4512H12.0361z" fill="#fff"/></svg>