<svg width="50" height="50" viewBox="0 0 50 50" fill="none" xmlns="http://www.w3.org/2000/svg"><circle cx="25" cy="25" r="23" fill="#028cb0"/><path d="M10.0865 25c0 5.9099 3.4375 11 8.4087 13.4195l-7.113-19.488C10.5281 20.8406 10.0866 22.9085 10.0865 25zM25 39.9135C26.732 39.9135 28.3978 39.6094 29.9579 39.0673L29.8522 38.869 25.2644 26.3089 20.7957 39.3053C22.1178 39.7019 23.5325 39.9135 25 39.9135zM27.0493 18.006l5.3942 16.0373 1.494-4.9712C34.5721 27.0096 35.0613 25.5288 35.0613 24.2464c0-1.851-.661100000000005-3.1202-1.2163-4.0986-.7669-1.2428-1.4676-2.2872-1.4676-3.5036.0-1.375 1.0313-2.6442 2.512-2.6442H35.0745C32.3266 11.4773 28.7303 10.0803 25 10.0865 22.53 10.0861 20.0987 10.6996 17.9247 11.872c-2.174 1.1724-4.0224 2.8668-5.379 4.9309L13.4976 16.8293c1.5601.0 3.9663-.1983 3.9663-.1983C18.2837 16.5913 18.3762 17.768 17.5697 17.8606 17.5697 17.8606 16.7632 17.9663 15.851 18.006l5.4471 16.1563 3.2656-9.7837-2.3269-6.3726C21.7156 17.9772 21.1953 17.9332 20.6767 17.8738 19.8702 17.8209 19.9627 16.5913 20.7692 16.631c0 0 2.4592.1983 3.9267.1983 1.5601.0 3.9664-.1983 3.9664-.1983C29.4688 16.5913 29.5745 17.768 28.768 17.8606 28.768 17.8606 27.9615 17.9531 27.0493 18.006zm5.4471 19.8846c2.2561-1.3118 4.1285-3.1927 5.43-5.4548 1.3016-2.262 1.9867-4.826 1.9871-7.4358.0-2.5913-.661099999999998-5.024-1.8246-7.1526C38.3252 20.1892 37.9707 22.5529 37.0577 24.7224L32.4964 37.8906zM25 42.1875c-4.5584.0-8.9301-1.8108-12.1534-5.0341C9.62332 33.9301 7.8125 29.5584 7.8125 25s1.81082-8.9301 5.0341-12.1534C16.0699 9.62332 20.4416 7.8125 25 7.8125s8.9301 1.81082 12.1534 5.0341c3.2233 3.2233 5.0341 7.595 5.0341 12.1534s-1.8108 8.9301-5.0341 12.1534C33.9301 40.3767 29.5584 42.1875 25 42.1875z" fill="#fff"/></svg>