<svg width="44" height="35" viewBox="0 0 44 35" fill="none" xmlns="http://www.w3.org/2000/svg"><path fill-rule="evenodd" clip-rule="evenodd" d="M6.74335 23.7004 4.45464 24.5223l-.12289 6.6926L12.2545 28.37C9.5371 27.4728 7.55267 25.8941 6.74335 23.7004z" fill="#fdbd39"/><path fill-rule="evenodd" clip-rule="evenodd" d="M7.94109 16.6218.0 19.4734l4.45463 5.0489L6.74334 23.7004c-.80695-2.1873-.30931-4.6598 1.19775-7.0786z" fill="#f69833"/><path fill-rule="evenodd" clip-rule="evenodd" d="M21.3045 6.9648C11.1923 10.5959 4.67302 18.0888 6.74335 23.7006L43.363 10.5511C41.2927 4.93925 31.4168 3.33365 21.3045 6.9648z" fill="#fecf33"/><path fill-rule="evenodd" clip-rule="evenodd" d="M28.8018 27.2867C38.914 23.6555 45.4456 16.1959 43.363 10.5509L6.74335 23.7004c2.08255 5.645 11.94625 7.2174 22.05845 3.5863z" fill="#ee6723"/><path fill-rule="evenodd" clip-rule="evenodd" d="M43.363 10.5509 6.74335 23.7004c.71706 1.9437 3.45155 2.9012 7.28825 2.9012 3.7405.0 8.5287-.909400000000002 13.5206-2.702 10.1123-3.6311 17.2269-9.5101 15.8108-13.3487z" fill="#f69833"/><path fill-rule="evenodd" clip-rule="evenodd" d="M36.0747 7.64966C32.3342 7.64966 27.546 8.55915 22.5541 10.3517 12.4418 13.9828 5.32719 19.8618 6.74335 23.7004L43.363 10.5509C42.6459 8.60723 39.9115 7.64966 36.0747 7.64966z" fill="#fdbd39"/><path fill-rule="evenodd" clip-rule="evenodd" d="M34.0523 31.5693H34.0521C32.9747 31.5693 31.3852 30.6127 29.3276 28.7261c-2.4341-2.2321-5.2224-5.5013-7.8514-9.2054-2.6288-3.7039-4.789-7.407-6.0825-10.42719C13.9843 5.80231 13.7834 3.77867 14.7964 3.07875c.222099999999999-.1533.4899-.23097.7958-.23097.824.0 2.4295.60303 5.3985 3.47604L21.0557 6.38661 21.0469 6.4759C21.0266 6.6823 21.0079 6.89054 20.9912 7.09493L20.9581 7.50079 20.6668 7.21233c-3.199-3.16786-4.6071-3.50986-5.0641-3.50986C15.4723 3.70247 15.3685 3.72852 15.2941 3.77994 14.8547 4.08342 14.8265 5.56984 16.1928 8.7603c1.2705 2.9663 3.3992 6.6134 5.9941 10.2694 2.595 3.6564 5.3407 6.8773 7.7313 9.0694 2.578 2.3638 3.7396 2.619 4.1195 2.619C34.1688 30.7181 34.2754 30.6904 34.3544 30.6358 34.818 30.3156 34.8185 28.7233 33.2948 25.2893L33.2248 25.1317 33.3779 25.0493C33.5311 24.9669 33.6792 24.8857 33.8181 24.8081L34.0015 24.7056 34.0861 24.8961C35.1665 27.3293 36.1765 30.4219 34.8522 31.337 34.6289 31.4911 34.3598 31.5693 34.0523 31.5693zM34.0521 31.194H34.0524L34.0522 31.3816 34.0521 31.194z" fill="#ee6723"/><path fill-rule="evenodd" clip-rule="evenodd" d="M29.0473 27.1843 29.0319 27.3714C28.7762 30.4808 28.1031 34.219 26.348 34.3703 26.3127 34.3734 26.2761 34.375 26.2394 34.375c-1.1923.0-2.3203-1.6792-3.3526-4.9909C21.9101 26.251 21.1522 22.0443 20.7526 17.539 20.3531 13.0346 20.3591 8.76204 20.7695 5.50837 21.2168 1.96286 22.0685.111283 23.3006.00500179 23.337.00170111 23.3748.0 23.4121.0 24.277.0 25.5805.962679 26.915 5.44667L26.0437 5.61198C25.5981 4.11355 25.1125 2.89484 24.6305 2.05741 24.1846 1.28282 23.751.856245 23.4096.856245 23.3984.856245 23.3871.856702 23.3759.857642 22.8419.903749 22.0641 2.17712 21.6305 5.61409 21.2274 8.80939 21.2225 13.018 21.6168 17.4645 22.0113 21.9117 22.7568 26.0556 23.716 29.1325 24.1456 30.5106 24.6168 31.6463 25.0786 32.417 25.5045 33.1277 25.9167 33.5191 26.2392 33.5191 26.2503 33.5191 26.2613 33.5186 26.2723 33.5177 26.7833 33.4737 27.7463 32.1486 28.1516 27.4864L29.0473 27.1843z" fill="#ee6723"/></svg>