<svg width="101" height="61" viewBox="0 0 101 61" fill="none" xmlns="http://www.w3.org/2000/svg"><path d="M98.7923 49.2308C98.2533 51.1789 97.2911 52.8855 95.9059 54.3507 94.549 55.8087 92.6908 56.8335 90.3312 57.425 88.7391 57.824 87.1931 57.9245 85.6931 57.7263 84.2144 57.4927 82.8528 57.003 81.6083 56.2574 80.3639 55.5118 79.2899 54.5421 78.3864 53.3484 77.5042 52.1192 76.86 50.6943 76.4539 49.0739 76.0762 47.5671 75.99 46.0779 76.1952 44.6063 76.3933 43.1063 76.851 41.7377 77.5682 40.5004 78.2783 39.2346 79.2124 38.1393 80.3705 37.2145 81.557 36.2826 82.9463 35.6171 84.5384 35.2181 86.2157 34.7976 87.7795 34.7078 89.2298 34.9486 90.673 35.161 91.9599 35.6543 93.0906 36.4284 94.2142 37.1741 95.1709 38.158 95.9607 39.3802s1.3806 2.6151 1.7726 4.1787C97.7831 43.7579 97.8259 43.9285 97.8615 44.0706 97.8759 44.2483 97.9008 44.4083 97.9365 44.5504 97.9437 44.6997 97.9686 44.8596 98.0114 45.0302L82.2756 48.9743C82.6031 49.7987 83.0158 50.4809 83.5138 51.0208 84.033 51.5252 84.6019 51.9265 85.2205 52.2247 85.8605 52.4873 86.5181 52.6397 87.1934 52.682 87.8616 52.6958 88.5227 52.6207 89.1765 52.4568 90.4559 52.1362 91.4365 51.5882 92.1185 50.813 92.8217 50.0022 93.3045 49.0956 93.5669 48.0931L98.7923 49.2308zM91.6868 42.4004C91.5657 42.0379 91.3345 41.6577 90.993 41.2599 90.68 40.8549 90.2604 40.5068 89.7342 40.2157 89.2364 39.9174 88.6427 39.7188 87.9532 39.6197 87.292 39.5134 86.535 39.5672 85.6821 39.781 84.4881 40.0803 83.5217 40.6851 82.7829 41.5954 82.0442 42.5058 81.6433 43.6185 81.5801 44.9336l10.1067-2.5332z" fill="#fff"/><path fill-rule="evenodd" clip-rule="evenodd" d="M70.1657 23.9036C69.6084 25.8466 68.6302 27.5441 67.2313 28.9962 66.2992 29.9792 65.1371 30.7596 63.7448 31.3374L63.4122 25.4941C63.4341 25.4707 63.4558 25.447 63.4772 25.4232 64.188 24.619 64.6793 23.7169 64.9511 22.717l5.2146 1.1866zM56.0979 32.0925C54.9617 31.8127 53.9013 31.3714 52.9165 30.7688 51.6791 30.0115 50.6143 29.0318 49.722 27.8297 48.8514 26.5923 48.2206 25.1615 47.8296 23.5372 47.7304 22.2147 48.0908 21.0664 48.8405 18.6781 48.9805 18.2319 49.1342 17.7424 49.3009 17.2005 49.7905 15.6093 49.9801 15.0746 50.2064 14.4364 50.3216 14.1115 50.4464 13.7597 50.6251 13.2279L50.628 13.2192C50.7765 12.7775 50.8444 12.5754 50.968 12.4165 51.0723 12.2823 51.2162 12.179 51.4817 11.9884 51.5863 11.9133 51.7099 11.8246 51.8573 11.7152c1.1952-.9208 2.5907-1.5732 4.1864-1.95735C57.7249 9.35317 59.2895 9.27803 60.7375 9.53242 62.1786 9.75831 63.4608 10.2636 64.5842 11.0483 65.7008 11.8045 66.6482 12.7974 67.4265 14.0269s1.3561 2.6279 1.7333 4.1952L69.2833 18.735C69.2959 18.9128 69.3194 19.0729 69.3537 19.2154 69.3595 19.3648 69.383 19.5249 69.4241 19.6959l-15.772 3.7964C53.9718 24.3197 54.3781 25.0057 54.871 25.5503 55.1546 25.831 55.4536 26.0806 55.768 26.2989L56.0979 32.0925zm7.0266-15.0856C63.0068 16.6433 62.7791 16.261 62.4414 15.8599 62.1322 15.452 61.7159 15.1 61.1924 14.804 60.6975 14.5011 60.1057 14.2968 59.4171 14.1913 58.7569 14.0789 57.9994 14.1255 57.1446 14.3313 55.9478 14.6194 54.9758 15.2151 54.2286 16.1185 53.4813 17.0219 53.07 18.1308 52.9945 19.4452l10.13-2.4383z" fill="#fff"/><path d="M58.5087 52.7192 58.1575 52.7373C57.6775 53.6719 56.8979 54.4899 55.8189 55.1912c-1.079.7014-2.438 1.0944-4.0772 1.1791C50.3661 56.4413 49.0345 56.2312 47.7472 55.7401 46.4877 55.2182 45.3492 54.4846 44.3319 53.5393 43.3424 52.5632 42.5333 51.387 41.9046 50.0108 41.2759 48.6345 40.9185 47.1122 40.8323 45.4438 40.7462 43.7754 40.9449 42.2244 41.4285 40.7907 41.9121 39.3571 42.5965 38.1184 43.4817 37.0749 44.3947 36.0006 45.4515 35.1536 46.6522 34.534 47.8806 33.8836 49.1826 33.5229 50.5583 33.4518 52.1974 33.3672 53.5897 33.6181 54.7352 34.2046s2.0052 1.3199 2.5789 2.2L57.1554 33.3313 56.6679 23.8917 62.4195 23.5947l1.6233 31.436-5.4003.2789L58.5087 52.7192zm-5.8558-1.7227C53.4139 50.9572 54.1242 50.7885 54.7838 50.4903 55.4712 50.1613 56.0647 49.7198 56.5643 49.1657 57.064 48.6117 57.4551 47.9458 57.7378 47.1682 58.0205 46.3905 58.1369 45.5187 58.087 44.5528 58.0371 43.5869 57.8316 42.7318 57.4703 41.9874S56.6513 40.621 56.0973 40.1213C55.5432 39.6217 54.9081 39.2583 54.1921 39.0311 53.5037 38.7732 52.7791 38.6638 52.018 38.7031 51.257 38.7424 50.5328 38.9266 49.8455 39.2555 49.1874 39.583 48.6085 40.0238 48.1088 40.5778 47.6092 41.1319 47.218 41.7978 46.9354 42.5754 46.6527 43.3531 46.5355 44.2102 46.5839 45.1468 46.6323 46.0835 46.8371 46.924 47.1983 47.6684 47.5596 48.4128 48.0173 49.0348 48.5713 49.5345 49.1254 50.0341 49.7466 50.4129 50.4349 50.6708 51.1525 50.9273 51.8918 51.0358 52.6529 50.9965z" fill="#fff"/><path fill-rule="evenodd" clip-rule="evenodd" d="M21.3389 51.5045 20.7324 55.8375 26.436 56.6358l1.4626-10.4493C28.0205 45.3157 28.2358 44.5172 28.5446 43.7909 28.8866 43.0397 29.2993 42.4168 29.7828 41.9222 30.2995 41.4026 30.8704 41.0238 31.4956 40.7858 32.1539 40.5228 32.8749 40.4462 33.6586 40.5559 34.9648 40.7387 35.8989 41.2542 36.4608 42.1023 37.0559 42.9254 37.2458 44.1062 37.0304 45.6446L35.3179 57.8791 41.0216 58.6774 41.9594 51.9769C41.5403 51.3746 41.1689 50.7192 40.8453 50.0109 40.2166 48.6347 39.8592 47.1123 39.773 45.444 39.6869 43.7756 39.8856 42.2245 40.3692 40.7908 40.6582 39.9341 41.0189 39.147 41.4513 38.4295 40.9566 37.7336 40.3159 37.1478 39.5293 36.672 38.5743 36.0944 37.4293 35.7122 36.0941 35.5253 34.6428 35.3222 33.3064 35.4607 32.085 35.9408 30.8677 36.3919 29.85 37.1077 29.0321 38.0882L28.6838 38.0394 29.0738 35.2529 23.7185 34.5034l-.6891 4.9237 2.3132 11.2544-4.0037.823z" fill="#fff"/><path d="M76.0134 22.2806l-6.093-11.3879 6.7674.7988 3.1849 6.3965L80.1783 18.124 84.5466 12.6191 91.5323 13.4436 82.7807 23.0794l6.2264 11.7578L82.2834 34.0436 78.9882 27.4571 78.6825 27.421 74.0753 33.0748l-6.7674-.7988 8.7055-9.9954z" fill="#fff"/><path d="M37.4005 32.5598 46.7207 2.49338l5.501 1.70524L42.9015 34.265l-5.501-1.7052z" fill="#fff"/><path d="M18.2293 48.6019 17.8848 48.6728C17.3897 49.6123 16.7275 50.4666 15.8981 51.2355 15.0975 51.9985 13.9651 52.5304 12.5009 52.8314 11.41 53.0556 10.3381 53.0814 9.2853 52.9088 8.2671 52.7591 7.33423 52.4421 6.48669 51.9581 5.63915 51.474 4.92295 50.8283 4.3381 50.0209 3.75326 49.2136 3.35167 48.2788 3.13334 47.2165c-.22424-1.0909-.20955-2.1113.04406-3.061C3.42511 43.177 3.87162 42.2923 4.51694 41.5014 5.16226 40.7104 5.96923 40.0509 6.93784 39.5226 7.92925 38.9598 9.0422 38.5515 10.2767 38.2978 11.6547 38.0145 12.8123 37.8963 13.7495 37.943 14.6808 37.9611 15.4571 38.0259 16.0785 38.1376L15.9457 37.4916C15.7156 36.372 15.0818 35.5448 14.0443 35.01 13.0009 34.4465 11.8189 34.3004 10.4983 34.5719 8.54607 34.9731 7.06349 36.1306 6.05052 38.0444L1.38418 36.0861C3.04519 32.8124 5.81354 30.7772 9.68923 29.9806 12.962 29.3079 15.619 29.5697 17.6602 30.7659c2.0353 1.1675 3.3627 3.2585 3.9823 6.2729l2.6023 12.6606-5.5552 1.1418-.4603-2.2393zm-1.3011-6.3302C16.203 42.0916 15.4638 41.9892 14.7107 41.9644 13.9804 41.9051 13.1989 41.961 12.3664 42.1321 11.0171 42.4094 10.0312 42.9263 9.40864 43.6826 8.80894 44.4043 8.5976 45.1958 8.77462 46.057 8.95165 46.9183 9.43777 47.5365 10.233 47.9116 11.0569 48.2809 11.9282 48.3711 12.8469 48.1822 13.5934 48.0288 14.2558 47.758 14.8343 47.3698 15.4069 46.9529 15.8642 46.4849 16.2064 45.9657 16.5713 45.412 16.8096 44.8244 16.9212 44.203 17.0557 43.547 17.058 42.9032 16.9282 42.2717z" fill="#fff"/><path fill-rule="evenodd" clip-rule="evenodd" d="M28.7356.0 23.1739.17745 14.1291 28.3259C15.7351 28.3888 17.1324 28.7685 18.3209 29.4651 18.8259 29.7548 19.2874 30.1014 19.7053 30.5048l1.5321-5.7504L33.34 23.8832 36.2255 32.0092 38.7995 24.0575 28.7356.0zM27.6477 10.9375l3.3715 7.6471L22.7753 19.1781l2.2414-8.0512L25.8822 7.22988 26.233 7.20463l1.4147 3.73287z" fill="#fff"/><path fill-rule="evenodd" clip-rule="evenodd" d="M78.1025 36.9945C78.313 37.0615 78.5103 37.1343 78.6943 37.2129 77.8166 38.0186 77.0881 38.9379 76.5088 39.9707 76.1157 40.6489 75.8005 41.3665 75.5634 42.1236 75.3817 42.1013 75.1884 42.0849 74.9832 42.0745 74.1929 42.0344 73.4676 42.1589 72.8073 42.4482 72.1484 42.7082 71.5707 43.1044 71.0742 43.6368 70.6068 44.1707 70.2221 44.8114 69.9201 45.5591 69.6487 46.279 69.4908 47.078 69.4462 47.9561l-.5351 10.5377L63.1593 58.2017 63.2833 55.7605l1.6279-.1083L63.9909 41.825 64.2518 36.6874 69.6523 36.9616 69.5007 39.9473 69.852 39.9651C70.1421 39.4516 70.5179 38.9864 70.9793 38.5697 71.4407 38.1529 71.943 37.7969 72.4862 37.5017 73.0587 37.2079 73.6568 36.9888 74.2804 36.8444 74.9333 36.7015 75.567 36.6456 76.1817 36.6768 76.9428 36.7155 77.583 36.8214 78.1025 36.9945z" fill="#fff"/></svg>