<svg width="233" height="33" viewBox="0 0 233 33" fill="none" xmlns="http://www.w3.org/2000/svg"><path d="M5 24.0498C19.4056 18.807 33.5236 13.4007 48.2235 9.46344c5.2687-1.4112 4.1911-.2334 5.0473 5.22496C53.7778 17.9212 54.0251 26.1649 57.0333 27.7508c2.2794 1.2016 8.1125-2.2979 9.8194-2.9391C76.3435 21.2468 86.0128 18.4941 95.5765 15.2327 98.0109 14.4025 114.219 5.56013 116.959 8.81032 118.178 10.2568 117.366 15.033 118.152 17.0832 120.999 24.5121 152.084 7.11305 157.521 5.32702 166.191 2.47924 160.09 19.0413 163.945 23.6143 166.08 26.1472 190.467 8.59261 195.422 8.59261c6.798.0-1.649 19.21099 9.636 12.51809C212.35 16.786 220.747 14.6358 228 10.3343" stroke="#45fff4" stroke-width="9" stroke-linecap="round"/></svg>