<svg width="50" height="50" viewBox="0 0 50 50" fill="none" xmlns="http://www.w3.org/2000/svg"><path d="M3.125 18.9583c0-5.5422.0-8.3132 1.07858-10.43008C5.15233 6.6662 6.6662 5.15233 8.52822 4.20358 10.6451 3.125 13.4161 3.125 18.9583 3.125H31.0417c5.5422.0 8.3132.0 10.4301 1.07858C43.3338 5.15233 44.8477 6.6662 45.7964 8.52822 46.875 10.6451 46.875 13.4161 46.875 18.9583V31.0417c0 5.5422.0 8.3132-1.0786 10.4301C44.8477 43.3338 43.3338 44.8477 41.4718 45.7964c-2.1169 1.0786-4.8879 1.0786-10.4301 1.0786H18.9583c-5.5422.0-8.3132.0-10.43008-1.0786C6.6662 44.8477 5.15233 43.3338 4.20358 41.4718 3.125 39.3549 3.125 36.5839 3.125 31.0417V18.9583z" fill="#49021f"/><path d="M18.1126 15.9305V35.1051C18.1126 35.3059 18.0246 35.4063 17.8485 35.4061H14.2972C14.1405 35.4061 14.0622 35.3058 14.0625 35.1051V15.9305C14.0625 15.7701 14.1505 15.6898 14.3266 15.6896h3.5512C18.0126 15.67 18.1318 15.7923 18.1126 15.9305z" fill="#f36"/><path d="M28.6196 35.7071C27.2687 35.7281 25.9303 35.4402 24.7015 34.8642c-2.6087-1.2383-3.7423-3.979-3.742-6.8029C20.937 25.2443 22.429 22.5602 24.863 21.2282c1.6801-.9545 3.6565-1.197 5.5469-1.0234v-5.93C30.4099 14.1346 30.4686 14.0641 30.586 14.0641h3.6979C34.385 14.0493 34.4745 14.141 34.4601 14.2447v17.79C34.4601 32.7687 34.5328 33.5001 34.5775 34.2321 34.5847 34.3571 34.5123 34.4808 34.4013 34.5331 33.4473 34.9412 32.4536 35.2439 31.4371 35.4361 30.5077 35.6121 29.5648 35.7027 28.6196 35.7071zm1.7903-3.7326V23.7568C27.7414 23.0153 25.1267 25.0527 25.1271 27.8807 25.0626 30.8423 27.7033 32.7864 30.4099 31.9745z" fill="#f36"/></svg>