<svg width="50" height="50" viewBox="0 0 50 50" fill="none" xmlns="http://www.w3.org/2000/svg"><circle cx="25" cy="25" r="23" fill="#0678be"/><path d="M25 7.8125C15.5326 7.8125 7.8125 15.5326 7.8125 25S15.5326 42.1875 25 42.1875 42.1875 34.4674 42.1875 25c0-9.3462-7.8413-17.1875-17.1875-17.1875zm0 28.125c-5.1833.0-9.375-4.1917-9.375-9.375.0-4.3924 2.909-7.1548 5.5014-9.7473 1.7188-1.7187 3.3834-4.0237 3.8736-5.8777C25.4918 12.7931 27.1277 15.0965 28.8736 16.8152c2.5924 2.5925 5.5014 5.3549 5.5014 9.7473.0 5.1833-4.1917 9.375-9.375 9.375z" fill="#fff"/></svg>