<svg width="50" height="50" viewBox="0 0 50 50" fill="none" xmlns="http://www.w3.org/2000/svg"><path fill-rule="evenodd" clip-rule="evenodd" d="M25 25c0-3.4518 2.7982-6.25 6.25-6.25S37.5 21.5482 37.5 25s-2.7982 6.25-6.25 6.25S25 28.4518 25 25z" fill="#1abcfe"/><path fill-rule="evenodd" clip-rule="evenodd" d="M12.5 37.5c0-3.4518 2.7982-6.25 6.25-6.25H25V37.5c0 3.4518-2.7982 6.25-6.25 6.25-3.4518.0-6.25-2.7982-6.25-6.25z" fill="#0acf83"/><path fill-rule="evenodd" clip-rule="evenodd" d="M25 6.25v12.5h6.25c3.4518.0 6.25-2.7982 6.25-6.25.0-3.45178-2.7982-6.25-6.25-6.25H25z" fill="#ff7262"/><path fill-rule="evenodd" clip-rule="evenodd" d="M12.5 12.5c0 3.4518 2.7982 6.25 6.25 6.25H25V6.25H18.75c-3.4518.0-6.25 2.79822-6.25 6.25z" fill="#f24e1e"/><path fill-rule="evenodd" clip-rule="evenodd" d="M12.5 25c0 3.4518 2.7982 6.25 6.25 6.25H25V18.75H18.75c-3.4518.0-6.25 2.7982-6.25 6.25z" fill="#a259ff"/></svg>