<svg width="50" height="50" viewBox="0 0 50 50" fill="none" xmlns="http://www.w3.org/2000/svg"><path fill-rule="evenodd" clip-rule="evenodd" d="M25 46.875c12.0812.0 21.875-9.7938 21.875-21.875C46.875 12.9188 37.0812 3.125 25 3.125 12.9188 3.125 3.125 12.9188 3.125 25S12.9188 46.875 25 46.875z" fill="#1fb6ff"/><path fill-rule="evenodd" clip-rule="evenodd" d="M22.8198 20.1893C24.4216 20.2067 21.6016 28.5216 21.9043 32.1364 22.2097 35.7833 26.245 34.7333 25.9888 32.6339 25.5531 29.0648 27.9306 17.881 30.3418 17.881c1.6917.0-1.8738 7.7099-1.1722 12.6469C29.6338 33.7944 33.8469 32.6613 33.4188 30.7245c-1.4163-6.4097 2.9718-12.5698 2.48-16.9342-.2151-1.9097-1.3635-2.8436-2.5123-2.8527C29.3645 10.9066 26.2576 19.155 26.2576 19.155S26.5811 14.4669 23.4551 14.2948c-4.786-.2638-9.524 11.7142-9.3898 22.4094C14.1081 40.1162 18.3546 39.5351 18.1313 36.8147 17.7161 31.7557 20.5367 20.1649 22.8198 20.1893z" fill="#fff"/></svg>