<svg width="50" height="50" viewBox="0 0 50 50" fill="none" xmlns="http://www.w3.org/2000/svg"><path d="M3.125 18.9583c0-5.5422.0-8.3132 1.07858-10.43008C5.15233 6.6662 6.6662 5.15233 8.52822 4.20358 10.6451 3.125 13.4161 3.125 18.9583 3.125H31.0417c5.5422.0 8.3132.0 10.4301 1.07858C43.3338 5.15233 44.8477 6.6662 45.7964 8.52822 46.875 10.6451 46.875 13.4161 46.875 18.9583V31.0417c0 5.5422.0 8.3132-1.0786 10.4301C44.8477 43.3338 43.3338 44.8477 41.4718 45.7964c-2.1169 1.0786-4.8879 1.0786-10.4301 1.0786H18.9583c-5.5422.0-8.3132.0-10.43008-1.0786C6.6662 44.8477 5.15233 43.3338 4.20358 41.4718 3.125 39.3549 3.125 36.5839 3.125 31.0417V18.9583z" fill="#242424"/><path d="M15.4167 25.625C9.32297 30.1099 8.125 36.6666 8.125 42.1354c.27778-1.632 1.55208-5.4584 4.4271-7.7084 4.2708-3.3424 12.0833-2.2413 20.625-7.9166 8.5417-5.6754 9.375-13.0729 8.2812-18.75002C40.6984 13.2383 38.105 15.6257 34.5313 17.7604c-7.7604 4.6354-12.6042 3.0729-19.1146 7.8646z" fill="url(#paint0_linear_13_612)"/><path d="M15.4167 25.625C9.32297 30.1099 8.125 36.6666 8.125 42.1354c.27778-1.632 1.55208-5.4584 4.4271-7.7084 4.2708-3.3424 12.0833-2.2413 20.625-7.9166 8.5417-5.6754 9.375-13.0729 8.2812-18.75002C40.6984 13.2383 38.105 15.6257 34.5313 17.7604c-7.7604 4.6354-12.6042 3.0729-19.1146 7.8646z" fill="url(#paint1_linear_13_612)"/><path d="M8.19788 39.8937C8.53226 34.9524 10.1367 29.511 15.4167 25.625c3.394-2.498 6.335-3.2691 9.4725-4.0916C26.7202 21.0533 28.618 20.5557 30.7119 19.6871 29.9479 20.4167 26.3181 22.1198 23.5801 23.2578c-2.7308 1.135-5.6099 2.3316-8.0072 3.9297-4.8096 3.2065-6.76529 8.7852-7.37502 12.7062z" fill="url(#paint2_linear_13_612)"/><path d="M8.19788 39.8937C8.53226 34.9524 10.1367 29.511 15.4167 25.625c3.394-2.498 6.335-3.2691 9.4725-4.0916C26.7202 21.0533 28.618 20.5557 30.7119 19.6871 29.9479 20.4167 26.3181 22.1198 23.5801 23.2578c-2.7308 1.135-5.6099 2.3316-8.0072 3.9297-4.8096 3.2065-6.76529 8.7852-7.37502 12.7062z" fill="url(#paint3_linear_13_612)"/><path d="M37.8402 22.4545C37.2413 23.0412 36.5735 23.5664 35.8334 24.0104 32.5001 26.0104 28.957 26.6554 25.5095 27.283c-2.7472.5001-5.4338.9892-7.9053 2.1441-5.5725 2.604-9.00993 8.0201-9.47904 12.7074C8.12512 42.1347 8.12509 42.1349 8.12506 42.1351 8.12504 42.1343 8.12502 42.1334 8.125 42.1326 8.12503 41.7748 8.13018 41.4123 8.14151 41.0461 8.1699 40.4651 8.22997 39.8214 8.32936 39.1348 9.06504 35.28 11.0659 30.1922 15.573 27.1875c1.9079-1.272 4.1211-2.2896 6.3218-3.2242C23.8302 23.3279 25.5745 22.9324 27.2364 22.5557 29.8524 21.9626 32.2643 21.4158 34.8959 20.0521 40.4179 17.1907 41.8646 11.3106 41.4758 7.85181 42.3014 12.2344 41.9676 17.6249 37.8402 22.4545z" fill="url(#paint4_linear_13_612)"/><path d="M37.8401 22.4546C37.2412 23.0412 36.5735 23.5663 35.8334 24.0104 32.5001 26.0104 28.957 26.6554 25.5095 27.283c-2.7472.5001-5.4338.9892-7.9053 2.1441-3.2047 1.4975-5.7033 3.9252-7.3373 6.6094 1.4417-2.0258 3.638-4.2889 6.3477-5.1511 2.6442-.8413 5.1663-.9283 7.7865-1.0186C25.1521 29.8409 25.9111 29.8148 26.6834 29.7705c2.0814-.7577 4.2627-1.7778 6.4937-3.2601C35.1001 25.2327 36.6325 23.8676 37.8401 22.4546z" fill="url(#paint5_linear_13_612)"/><path d="M37.8401 22.4546C37.2412 23.0412 36.5735 23.5663 35.8334 24.0104 32.5001 26.0104 28.957 26.6554 25.5095 27.283c-2.7472.5001-5.4338.9892-7.9053 2.1441-3.2047 1.4975-5.7033 3.9252-7.3373 6.6094 1.4417-2.0258 3.638-4.2889 6.3477-5.1511 2.6442-.8413 5.1663-.9283 7.7865-1.0186C25.1521 29.8409 25.9111 29.8148 26.6834 29.7705c2.0814-.7577 4.2627-1.7778 6.4937-3.2601C35.1001 25.2327 36.6325 23.8676 37.8401 22.4546z" fill="url(#paint6_linear_13_612)"/><path d="M41.4757 7.85174C41.47 7.82124 41.4642 7.79078 41.4583 7.76038 40.6984 13.2383 38.105 15.6257 34.5312 17.7604 33.1774 18.569 31.9124 19.1891 30.7118 19.6871 29.9477 20.4167 26.318 22.1198 23.5801 23.2577L23.5796 23.2579C23.0224 23.4895 22.4591 23.7236 21.8949 23.9632 23.8302 23.3278 25.5745 22.9324 27.2363 22.5556c2.6161-.5931 5.0279-1.1399 7.6596-2.5036C40.4179 17.1906 41.8646 11.3106 41.4757 7.85174z" fill="url(#paint7_linear_13_612)"/><path d="M41.4757 7.85174C41.47 7.82124 41.4642 7.79078 41.4583 7.76038 40.6984 13.2383 38.105 15.6257 34.5312 17.7604 33.1774 18.569 31.9124 19.1891 30.7118 19.6871 29.9477 20.4167 26.318 22.1198 23.5801 23.2577L23.5796 23.2579C23.0224 23.4895 22.4591 23.7236 21.8949 23.9632 23.8302 23.3278 25.5745 22.9324 27.2363 22.5556c2.6161-.5931 5.0279-1.1399 7.6596-2.5036C40.4179 17.1906 41.8646 11.3106 41.4757 7.85174z" fill="url(#paint8_linear_13_612)"/><defs><linearGradient id="paint0_linear_13_612" x1="27.1875" y1="28.4375" x2="9.16667" y2="41.3541" gradientUnits="userSpaceOnUse"><stop stop-color="#fe5004"/><stop offset=".602538" stop-color="#ffb915"/><stop offset="1" stop-color="#fffc41"/></linearGradient><linearGradient id="paint1_linear_13_612" x1="20.0521" y1="29.5312" x2="20.1562" y2="31.4062" gradientUnits="userSpaceOnUse"><stop stop-color="#fd3e00"/><stop offset="1" stop-color="#fd4400" stop-opacity="0"/></linearGradient><linearGradient id="paint2_linear_13_612" x1="30.7292" y1="18.7501" x2="5.31249" y2="41.3542" gradientUnits="userSpaceOnUse"><stop stop-color="#005fc6"/><stop offset=".279756" stop-color="#23a4df"/><stop offset=".465158" stop-color="#3ac2b7"/><stop offset=".640642" stop-color="#60ec7a"/><stop offset=".818668" stop-color="#cffdbd"/><stop offset="1" stop-color="#d0fcb6"/></linearGradient><linearGradient id="paint3_linear_13_612" x1="25.5729" y1="23.073" x2="23.3854" y2="21.0938" gradientUnits="userSpaceOnUse"><stop stop-color="#0061cb"/><stop offset="1" stop-color="#067eea" stop-opacity="0"/></linearGradient><linearGradient id="paint4_linear_13_612" x1="41.5625" y1="7.81253" x2="8.125" y2="42.0834" gradientUnits="userSpaceOnUse"><stop stop-color="#8e55f1"/><stop offset=".140795" stop-color="#8b48df"/><stop offset=".274905" stop-color="#e04dd9"/><stop offset=".492309" stop-color="#f496c8"/><stop offset=".633104" stop-color="#fad2ba"/><stop offset=".856964" stop-color="#fef7e5"/><stop offset="1" stop-color="#fff5bf"/></linearGradient><linearGradient id="paint5_linear_13_612" x1="38.2812" y1="22.1354" x2="10.9896" y2="34.4791" gradientUnits="userSpaceOnUse"><stop stop-color="#f41a73"/><stop offset=".399909" stop-color="#fc50a3"/><stop offset=".584511" stop-color="#fe9485"/><stop offset=".703104" stop-color="#ffaf88"/><stop offset="1" stop-color="#ffc385"/></linearGradient><linearGradient id="paint6_linear_13_612" x1="28.4375" y1="25.9375" x2="28.4896" y2="28.4375" gradientUnits="userSpaceOnUse"><stop stop-color="#9b0008"/><stop offset="1" stop-color="#ea115a" stop-opacity="0"/></linearGradient><linearGradient id="paint7_linear_13_612" x1="41.5625" y1="10.625" x2="16.9271" y2="26.7187" gradientUnits="userSpaceOnUse"><stop stop-color="#231283"/><stop offset=".362865" stop-color="#7053c6"/><stop offset=".466353" stop-color="#7272db"/><stop offset=".634311" stop-color="#399ee9"/><stop offset="1" stop-color="#00cfff"/></linearGradient><linearGradient id="paint8_linear_13_612" x1="35.4167" y1="18.75" x2="36.5104" y2="20.1562" gradientUnits="userSpaceOnUse"><stop stop-color="#3f259d" stop-opacity="0"/><stop offset="1" stop-color="#412daa"/></linearGradient></defs></svg>