<svg width="50" height="50" viewBox="0 0 50 50" fill="none" xmlns="http://www.w3.org/2000/svg"><path fill-rule="evenodd" clip-rule="evenodd" d="M12.6704 7.48465 24.9999 6.25 37.3295 7.48465 46.8749 19.6219l-21.875 24.128L3.125 19.6219 12.6704 7.48465z" fill="#fdb300"/><path d="M11.9854 19.6219 24.9998 43.7501 3.125 19.6219h8.8604zm26.0292.0L25.0002 43.7501 46.875 19.6219" fill="#ea6c00"/><path fill-rule="evenodd" clip-rule="evenodd" d="M11.9854 19.6219H38.0143L24.9998 43.7501" fill="#fdad00"/><path d="M24.9998 6.25 12.6703 7.48444 11.9854 19.6218 24.9998 6.25zM25 6.25 37.3296 7.48444 38.0145 19.6218" fill="#fdd231"/><path d="M46.875 19.6217 37.3297 7.48438 38.0146 19.6217H46.875zm-43.75.0L12.6703 7.48438 11.9854 19.6217" fill="#fdad00"/><path fill-rule="evenodd" clip-rule="evenodd" d="M24.9998 6.25 11.9854 19.6218H38.0143" fill="#feeeb7"/></svg>